<svg xmlns="http://www.w3.org/2000/svg" viewBox="0 0 255 257"><path fill="#f8d062" stroke="#f8d062" d="M103 53.622c0 1.397-.232 1.432-1.663.25-1.258-1.038-1.762-1.077-2.071-.158-.299.889-.866.928-2.119.145-1.268-.791-2.707-.652-5.551.537C89.484 55.278 86.741 56 85.5 56c-1.24 0-2.815.675-3.5 1.5S79.46 59 77.878 59C76.295 59 75 59.45 75 60c0 1.065 1.004 1.288 5 1.11 2.34-.105 2.378-.032.598 1.139-12.899 8.486-14.088 9.504-16.802 14.381-4.285 7.703-6.147 17.776-5.913 31.997.195 11.871-1.29 19.551-4.155 21.488-.5.338-3.021 6.863-5.601 14.5-2.581 7.637-5.086 14.52-5.568 15.296-1.191 1.919-.894 14.594.399 17.01 1.586 2.963 1.342 3.467-2.708 5.592-2.062 1.082-3.975 2.236-4.25 2.564-.275.328-2.621 1.828-5.213 3.333-4.337 2.518-4.616 2.91-3.5 4.913 2.293 4.115 7.307 4.973 12.716 2.175 2.745-1.419 3.177-1.34 7.9 1.445 8.571 5.053 16.362 6.859 32.741 7.587 17.872.794 21.581 1.628 25.744 5.791 2.808 2.808 3.105 3.611 2.468 6.685-.413 1.996-.301 3.923.26 4.494 1.587 1.613 20.631 1.54 28.405-.109 9.139-1.939 9.812-2.384 8.566-5.663-1.437-3.78-4.246-4.908-10.237-4.114-3.543.47-4.947.351-4.494-.38.361-.586-.456-2.387-1.816-4.004l-2.473-2.939 2.478-1.13c3.104-1.414 8.22-9.353 9.079-14.088.356-1.965 1.643-6.498 2.86-10.073 3.344-9.825 4.941-19.119 3.445-20.044-2.146-1.326 1.071-9.861 4.845-12.857 6.185-4.911 8.754-9.644 6.828-12.583-.906-1.384-2.425-2.52-3.375-2.524-.95-.004-2.247-1.129-2.883-2.5L149.188 126h5.841c3.212 0 6.883.383 8.156.852 6.939 2.554 11.195-4.216 12.166-19.352 1.354-21.129-3.369-35.455-11.241-34.091-7.639 1.324-18.11 1.652-18.11.567 0-.59-1.786-1.873-3.969-2.851-2.183-.977-4.87-2.922-5.97-4.321C133.852 63.996 122.895 58 119.973 58c-1.02 0-2.152-.481-2.515-1.068-.363-.588-1.355-.802-2.204-.476-.849.326-2.361-.148-3.361-1.053-1-.905-2.477-1.393-3.283-1.084-.805.309-2.002-.086-2.659-.878-1.587-1.912-2.951-1.828-2.951.181m-8 2.26c0 .55.45 1.278 1 1.618.55.34 1 .168 1-.382s-.45-1.278-1-1.618c-.55-.34-1-.168-1 .382M91.5 58c.34.55.816 1 1.059 1s.441-.45.441-1-.477-1-1.059-1-.781.45-.441 1M85 59c0 .55 1.013.993 2.25.985 1.819-.013 1.963-.201.75-.985-1.939-1.253-3-1.253-3 0m77.158 36c0 1.375.227 1.938.504 1.25.278-.687.278-1.812 0-2.5-.277-.687-.504-.125-.504 1.25m40.931 65.051c-2.425.495-6.165 2.116-8.311 3.603-21.662 15.012-17.166 47.927 7.582 55.507 16.747 5.129 29.874-1.373 37.723-18.684 9.906-21.846-11.8-45.566-36.994-40.426m24.905 7.264c1.644 4.601 1.241 5.242-3.964 6.308-4.251.871-5.443.745-8.25-.87l-3.28-1.889 2.563 2.124c2.545 2.109 2.553 2.159 1.047 7.065-.941 3.068-2.226 5.166-3.388 5.535-1.03.327-1.687.781-1.46 1.008.228.227 1.837-.083 3.576-.689 2.904-1.013 3.162-1.462 3.162-5.505 0-3.021.422-4.402 1.345-4.402 1.113 0 1.131.823.107 4.75-1.192 4.569-1.137 4.864 1.456 7.75 5.583 6.212 5.535 6.014 2.692 11.099-3.372 6.035-3.283 6.624.359 2.363 1.628-1.904 2.978-3.024 3-2.489.023.534.702.028 1.51-1.125 1.922-2.744 6.005-2.729 7.455.027.963 1.831 1.013 1.71.363-.875-.416-1.65-.763-5.995-.771-9.657-.009-3.661-.354-6.998-.766-7.416-.412-.418-.75-1.225-.75-1.794 0-.618.482-.551 1.2.167 3.605 3.605 2.897.456-.798-3.55-2.409-2.613-4.385-5.226-4.391-5.809-.006-.582-.689-1.932-1.517-3-1.404-1.81-1.438-1.752-.5.874m-11.181 39.368c.721.289 1.584.253 1.916-.079.332-.332-.258-.568-1.312-.525-1.165.048-1.402.285-.604.604" fill-rule="evenodd"/><path fill="#fbfbfb" stroke="#fbfbfb" d="M95 53.917c0 .504.475 1.075 1.054 1.268.58.193 1.166 1.018 1.301 1.833.136.815 1.032 2.832 1.992 4.482l1.746 3-.631-4C99.697 55.651 95 49.99 95 53.917m8.8.283c1.943 1.943 1.372 3.265-.629 1.455-2.743-2.483-4.492-2.178-2.929.511 1.857 3.196 5.29 6.663 4.463 4.508-.469-1.222-.101-1.674 1.359-1.674 1.14 0 2.389.968 2.905 2.25.693 1.724.919 1.841.968.5.098-2.708 4.903-2.309 6.032.5.704 1.753.918 1.859.968.481.07-1.96 3.112-1.664 8.313.808 1.708.812 2.75.917 2.75.277 0-.566.675-.771 1.5-.454.825.316 1.5.375 1.5.13 0-.916-8.462-4.492-10.629-4.492-1.239 0-2.531-.45-2.871-1-.34-.55-1.569-1-2.73-1-1.162 0-2.935-.745-3.941-1.655-1.702-1.54-1.829-1.54-1.829 0 0 2.241-1.25 2.085-2.768-.345-.687-1.1-1.785-2-2.44-2-.918 0-.916.276.008 1.2m-11.097 3.269C94.378 59.77 96 60.737 96 59.434 96 57.804 93.735 55 92.418 55c-1.272 0-1.226.392.285 2.469M86 57.031c0 .533.436.969.968.969s1.589 1.185 2.348 2.634c1.318 2.515 1.405 2.539 1.929.537.302-1.154.032-2.494-.598-2.979C88.689 56.687 86 56.015 86 57.031m-6 2.719c0 1.069 5.976 2.607 6.826 1.757.818-.818-.258-1.443-3.649-2.122C81.302 59.01 80 59.16 80 59.75m-5.139 7.309-2.361 2.06 2.75-1.675c1.513-.921 2.75-1.847 2.75-2.059 0-.781-.835-.335-3.139 1.674m67.213 8.092C140.152 77.214 137 85.553 137 88.575c0 2.234-2.971 2.403-32.8 1.871-36.187-.645-35.856-.604-36.709-4.486-.36-1.638-1.067-2.722-1.572-2.41-1.328.821-1.133-.793.594-4.928 2.301-5.506-.243-4.487-2.708 1.085-4.227 9.556-5.159 15.119-4.876 29.096.278 13.708-.445 17.63-4.001 21.697C53.165 132.516 45 155.294 45 158.195c0 .858-.572 2.035-1.271 2.615-1.278 1.061-.812 14.722.622 18.19.606 1.468-6.885 7.008-13.636 10.084-3.147 1.434-3.496 3.899-.886 6.261 2.316 2.096 3.691 2.056 8.779-.254l4.108-1.866 4.392 2.727c9.417 5.848 15.066 7.199 33.392 7.986 18.1.777 21.7 1.635 26.739 6.371 2.454 2.307 2.674 3.049 2.114 7.133l-.625 4.558 8.386.158c15.321.288 16.818.179 22.936-1.673 5.725-1.733 6.04-1.989 5.435-4.403-.935-3.723-2.273-4.247-9.213-3.606-5.282.488-6.141.347-5.652-.929.318-.828-.294-2.701-1.358-4.162l-1.936-2.658 4.125-4.125c2.97-2.971 4.621-5.802 5.895-10.114a449.332 449.332 0 0 1 3.768-11.988c1.099-3.3 2.147-7.35 2.33-9 .182-1.65.665-4.687 1.074-6.75.508-2.561.385-3.75-.387-3.75-.622 0-1.131-.675-1.131-1.5s-.45-1.5-1-1.5-1 .436-1 .969c0 .532-.624.729-1.387.436-3.562-1.367-5.847 5.127-5.686 16.158.084 5.74-.221 10.437-.678 10.437-.835 0-26.367-6.963-40.088-10.933-8.444-2.443-15.887-5.994-18.405-8.782-4.305-4.763-5.794-18.376-2.418-22.106C78.925 134.9 115 138.082 115 145.942c0 2.122 8.569 14.558 10.031 14.558.453 0 2.225-1.934 3.937-4.297 4.009-5.535 5.537-6.033 10.229-3.332 4.145 2.386 5.803 2.129 5.803-.899 0-1.051 2.7-4.602 6-7.892s6-6.834 6-7.876c0-1.966-2.904-5.204-4.668-5.204-.771 0-3.339-4.084-3.331-5.297.002-.174 3.098-.097 16.771.42 5.689.215 8.382-7.561 8.262-23.864-.156-21.329-3.946-30.958-11.034-28.039-3.917 1.613-15.224 1.63-17.151.025-1.43-1.191-1.934-1.071-3.775.906M140.158 93c0 1.375.227 1.938.504 1.25.278-.687.278-1.812 0-2.5-.277-.687-.504-.125-.504 1.25M162 95.059c0 1.785.417 2.802 1 2.441.55-.34 1-1.716 1-3.059 0-1.343-.45-2.441-1-2.441s-1 1.377-1 3.059m-73.055 6.867c-17.476.818-18.982 1.916-20.827 15.181-.578 4.155-1.339 8.305-1.691 9.224-.758 1.973-1.197 1.918 18.073 2.249 15.354.264 25.258 2.237 34.345 6.842 4.913 2.489 5.115 2.509 8.15.815 3.05-1.703 3.15-1.69 5.058.624 1.071 1.298 1.947 2.986 1.947 3.75 0 .764.499 1.389 1.108 1.389.676 0 .87-.953.496-2.443-.763-3.037 1.1-7.328 3.513-8.094 2.958-.939 3.428-6.669 1.044-12.721-1.136-2.883-2.54-7.102-3.12-9.376-.58-2.273-1.619-4.601-2.309-5.173-1.033-.858-30.358-3.58-32.562-3.024-.368.093-6.32.434-13.225.757m27.087 43.702c.064 1.773 2.968 4.889 2.968 3.186 0-.863-.675-2.129-1.5-2.814s-1.486-.852-1.468-.372m-12.517 7.347c-.726 1.175 5.99 17.126 8.618 20.467 2.246 2.855 5.033 2.434 7.884-1.191 1.589-2.02 2.55-2.388 4.976-1.902 4.125.825 3.769.081-1.164-2.436-2.295-1.171-7.082-5.23-10.638-9.021-6.246-6.658-8.403-7.977-9.676-5.917m107.075 10.852c-2.058 3.978-2.343 3.406 3.517 7.049 10.173 6.324 19.244-.112 9.893-7.018-1.375-1.016-4.597-2.13-7.16-2.476-4.452-.601-4.732-.491-6.25 2.445m-16.622 1.383C169.542 183.93 182.316 220 213.371 220c8.359 0 21.033-5.929 18.369-8.593-.881-.882-9.001 1.822-12.015 4-2.728 1.972-2.855 1.975-7.5.164-2.599-1.012-5.479-1.877-6.402-1.92-.922-.044-1.458-.433-1.191-.865.268-.432-.553-.789-1.823-.792-1.571-.005-2.874-1.044-4.076-3.25l-1.768-3.244 2.47 2.75c2.418 2.693 4.79 3.964 2.8 1.5-2.098-2.598-6.235-14.553-6.235-18.019 0-1.987-.479-3.909-1.065-4.271-.715-.442-.585-1.202.392-2.309 2.062-2.336 3.204-11.807 1.648-13.681-.727-.876-.806-1.47-.195-1.47.849 0 2.781-4.009 3.249-6.741.314-1.837-2.157-1.042-6.061 1.951m3.539-1.221c-.35.566.051.734.941.393 1.732-.665 2.049-1.382.611-1.382-.518 0-1.216.445-1.552.989m39.156 17.761c-1.922 3.168-.059 18.25 2.254 18.25 2.73 0 4.352-15.331 1.883-17.8-1.351-1.351-3.452-1.58-4.137-.45m-25.635 6.323c-5.606 2.542-5.705 2.72-5.06 9.108.617 6.11 2.701 7.78 9.74 7.804 3.912.014 4.386-.29 6.75-4.323 3.336-5.692 3.234-6.58-1.25-10.959-4.403-4.299-4.324-4.287-10.18-1.63" fill-rule="evenodd"/><path fill="#5d6d80" stroke="#5d6d80" d="M104.036 53.55c-.02.577.496 1.583 1.147 2.233.651.651.871 1.496.49 1.878-.382.381-1.607-.286-2.723-1.484-2.665-2.861-3.168-2.749-1.739.387 1.049 2.303 1.683 2.545 6.229 2.379 2.783-.102 5.735.056 6.56.35 6.174 2.206 11.42 3.62 11.847 3.194.866-.867-3.23-3.422-5.538-3.455-1.205-.018-2.48-.5-2.834-1.073-.354-.572-1.458-.782-2.454-.466-.996.316-2.501-.115-3.344-.959-1.653-1.653-2.749-1.989-2.559-.784.391 2.472-.42 2.393-2.587-.25-1.352-1.65-2.475-2.527-2.495-1.95m-6.959 2.719C97.761 57.771 98.699 59 99.161 59c1.472 0 .905-1.631-1.245-3.576-2.078-1.881-2.08-1.879-.839.845m-4.371.701c.928 1.084 1.888 1.769 2.133 1.524.596-.596-1.852-3.494-2.952-3.494-.477 0-.108.887.819 1.97M89 58.5c.685.825 1.695 1.5 2.245 1.5.558 0 .449-.663-.245-1.5-.685-.825-1.695-1.5-2.245-1.5-.558 0-.449.663.245 1.5m-5.49 2.516c.346.559 1.047.758 1.559.441C86.456 60.6 86.198 60 84.441 60c-.857 0-1.276.457-.931 1.016m71.967 16.852c-.537.507-3.997 1.102-7.689 1.322-7.93.473-7.491.149-9.037 6.656-.673 2.835-1.68 5.179-2.238 5.209-.557.03-16.313.157-35.013.281-40.742.271-41.687.447-42.55 7.95-.654 5.694-.608 5.763 3.115 4.695 7.594-2.178 27.248-3.247 47.935-2.607 27.893.862 26.432.472 27.952 7.466.677 3.113 2.569 8.067 4.204 11.01 2.72 4.892 2.84 5.497 1.409 7.078-.861.951-1.565 2.266-1.565 2.922 0 .656-1.136 1.71-2.524 2.343-2.673 1.218-4.019 4.459-3.109 7.485.36 1.196-.284 2.43-1.876 3.594-2.379 1.738-2.516 1.707-7.208-1.627-9.537-6.776-19.643-10.33-32.609-11.467-9.581-.84-24.514.131-27.624 1.795-1.431.766-3.298.742-6.589-.087-5.795-1.459-5.438-1.917-10.738 13.734-2.444 7.215-4.758 13.628-5.142 14.25-.385.621-.421 1.58-.081 2.13.34.55.254 1-.191 1-.897-.001-.841 5.588.135 13.395l.638 5.106-3.791 1.99c-2.085 1.094-4.016 2.271-4.291 2.615-.275.344-2.397 1.587-4.717 2.763-8.09 4.101-1.72 9.436 6.722 5.629 3.651-1.647 3.748-1.632 8.594 1.319 9.332 5.682 21.285 8.124 39.973 8.165 14.587.032 23.21 5.15 22.139 13.139-.666 4.959-1.071 4.803 12.901 4.959 17.982.2 27.152-3.763 20.569-8.889-1.202-.935-3.363-1.116-7.582-.634-5.165.59-5.825.474-5.287-.928.362-.942-.335-2.707-1.691-4.283l-2.306-2.681 4.248-4.083c3.253-3.126 4.634-5.487 5.895-10.082.906-3.3 2.596-8.7 3.756-12 1.159-3.3 2.2-7.125 2.313-8.5.112-1.375.539-4.187.95-6.25.653-3.285.509-3.75-1.166-3.75-1.051 0-2.409-.498-3.018-1.107-2.309-2.309-3.769 3.202-3.781 14.27-.007 5.865-.352 11.004-.767 11.422-.959.963-18.977-3.604-51.745-13.118-5.225-1.517-10.21-3.366-11.077-4.11-3.088-2.65-5.197-25.055-2.564-27.24 4.801-3.984 20.08-5.266 32.822-2.754 10.054 1.982 13.087 3.661 20.465 11.33l6.145 6.389 2.473-3.16 2.473-3.16 4.729 2.771c4.65 2.725 6.461 2.463 6.519-.943.008-.5 2.52-3.535 5.582-6.745 6.174-6.473 7.225-11.019 2.698-11.663-1.438-.204-2.849-1.631-3.955-4-.945-2.025-2.513-4.26-3.483-4.967-4.646-3.383-6.504-11.372-6.052-26.024.278-9.038 2.1-8.752 2.1.329 0 3.564-.422 6.48-.937 6.48-.516 0-.938.436-.938.969 0 1.799 3.146-.223 4.052-2.605.954-2.511 7.131-3.495 8.458-1.348.346.559 1.16.684 1.809.277 1.242-.779 1.794-.894 5.431-1.141 2.636-.178 3.07-2.115.5-2.231-.992-.045-1.222-.293-.532-.573.67-.271 1.508-2.036 1.862-3.921 1.072-5.716 2.107-3.875 2.71 4.823.966 13.933 3.972 22.437 7.033 19.897 1.706-1.416 3.034-10.001 1.786-11.543-1.102-1.362-1.662-10.518-1.108-18.104.121-1.65-.315-4.35-.968-6l-1.188-3-1.923 2.361L166 84.222v-3.111c0-3.313-3.464-4.368-7-2.132-1.06.67-1.653.511-2.022-.543-.326-.928-.893-1.142-1.501-.568M161 80.059c0 .582.45.781 1 .441s1-.816 1-1.059-.45-.441-1-.441-1 .477-1 1.059m-8.532 14.042c-.367 1.155-.172 2.595.433 3.2.799.799 1.099.225 1.099-2.101 0-3.694-.577-4.108-1.532-1.099m-1.718 15.216c-3.484 1.355-3.51 2.461-.066 2.867 3.392.399 5.154 5.223 2.479 6.784-1.537.898-1.533.973.052 1.002.943.016 2.196.93 2.785 2.03 1.44 2.69 2.831 2.521 3.573-.433.39-1.556 1.119-2.239 2.019-1.893 1.792.687 1.753-.635-.093-3.072-1.198-1.583-1.695-1.684-2.991-.609-1.313 1.09-1.455 1.033-.92-.363.472-1.228.22-1.494-.977-1.034-1.085.416-1.611.073-1.611-1.052 0-.991.711-1.597 1.75-1.492 3.98.405 5.391-.083 5.069-1.752-.395-2.051-6.847-2.624-11.069-.983m-.192 13.59c-.309.498.34.671 1.441.383 2.335-.611 2.63-1.29.56-1.29-.793 0-1.693.408-2.001.907m60.477 41.027c-1.63 3.046-1.32 3.644 3.525 6.795 4.209 2.739 4.9 2.888 9 1.95 4.901-1.122 5.101-1.5 2.97-5.62-2.508-4.851-13.396-7.046-15.495-3.125m-22.824 9.525c-4.256 5.41-5.013 10.288-2.258 14.539.85 1.31 1.417 1.258 4.524-.416 4.748-2.557 5.188-3.212 6.311-9.404.929-5.122.873-5.356-1.477-6.25-3.728-1.417-4.996-1.144-7.1 1.531m48.337 13.003c-.695 5.565.689 12.538 2.489 12.538 3.479 0 3.312-17.116-.173-17.788-1.276-.245-1.769.872-2.316 5.25m-25.436 2.066-5.388 2.508.582 5.638c.647 6.27 1.32 6.984 7.453 7.912 4.972.752 6.487-.188 9.352-5.804l1.965-3.852-3.658-4.465c-4.295-5.241-3.521-5.096-10.306-1.937m-24.129 14.992c-2.505 3.019 10.79 16.04 13.555 13.275 2.37-2.37-2.89-8.994-11.175-14.076-.625-.383-1.696-.023-2.38.801M226 212.868c-1.375.348-4.75 1.982-7.5 3.632-7.242 4.345-2.484 4.751 6.109.521 8.042-3.959 8.728-6.007 1.391-4.153" fill-rule="evenodd"/><path fill="#383f46" stroke="#383f46" d="M97.564 56.293c.376.986.935 1.541 1.243 1.233.308-.307.001-1.114-.683-1.793-.988-.98-1.102-.865-.56.56m12.436.589c0 .55.45 1.278 1 1.618.55.34 1 .168 1-.382s-.45-1.278-1-1.618c-.55-.34-1-.168-1 .382m4 1.511c0 .216.675.652 1.5.969.825.316 1.5.139 1.5-.393 0-.533-.675-.969-1.5-.969s-1.5.177-1.5.393m5 1.541c3.377 1.855 6.512 2.432 4.953.912-.799-.78-2.578-1.49-3.953-1.577-1.81-.115-2.086.069-1 .665m44.448 20.15c-.368.596-2.757.988-5.309.871-13.522-.621-14.927-.292-17.121 4.009-2.021 3.962-2.021 3.964-.02 5.035 1.206.645 2.033 2.151 2.081 3.786.046 1.597.314 2.097.65 1.215.863-2.267 2.48-2.986 5.521-2.453 1.961.343 2.75.064 2.75-.974 0-2.486 1.974-2.817 2.84-.477.669 1.808.937 1.929 1.43.642.37-.964 1.35-1.389 2.505-1.086 2.325.607 4.79-2.817 5.764-8.006.674-3.597.215-4.676-1.091-2.562M81.5 92.113c-17.756.789-20.5 1.574-20.5 5.862 0 4.261.195 4.544 3 4.369 28.567-1.782 37.015-1.997 52-1.323 9.625.433 18.684 1.09 20.131 1.461 2.408.618 2.663.392 3-2.653.838-7.565.319-8.366-5.172-7.982-2.728.19-4.959.753-4.959 1.25 0 .496-1.463.85-3.25.785l-3.25-.119 3-.724c1.725-.417-3.536-.799-12.374-.9-8.456-.096-15.656-.291-16-.434-.344-.142-7.376.041-15.626.408m62.75 34.549c-.687.278-1.25 1.139-1.25 1.914 0 .775-1.35 2.611-3 4.082-2.137 1.903-3 3.582-3 5.833a7.345 7.345 0 0 1-2.314 5.335c-2.882 2.707-3.491 2.706-6.385-.013-4.576-4.299-5.548 1.795-1.143 7.166 2.078 2.533 3.759 1.771 5.123-2.323.205-.614 2.292.076 4.964 1.642 5.485 3.214 6.755 3.355 6.755.749 0-1.074 1.724-3.338 3.832-5.032 7.407-5.952 9.734-14.015 4.046-14.015-1.033 0-1.878-.643-1.878-1.429 0-1.501-2.66-4.627-3.821-4.492-.374.043-1.241.306-1.929.583m-86.875 10.156c-.723 1.915-.723 3.268-.001 4.413.771 1.222.632 2.122-.536 3.46-.867.995-1.369 2.386-1.114 3.09.255.705-.111 1.155-.813 1-1.804-.397-3.392 8.935-1.838 10.807.887 1.068.822 1.515-.282 1.939-.95.364-1.287 1.548-.999 3.511.293 1.991.007 2.962-.87 2.962-.783 0-.529.586.637 1.468 1.756 1.329 1.774 1.471.191 1.5-2.195.04-2.335 2.032-.143 2.032 1.018 0 1.396.55 1.031 1.5-.316.825-.187 1.5.286 1.5.474 0 1.118-.667 1.431-1.483.352-.916 1.218-1.235 2.265-.833 1.463.562 1.614.148 1.101-3.016-.331-2.038-.179-3.668.342-3.668.515 0 .937.9.937 2s.498 2 1.107 2 .845-.684.524-1.52c-.681-1.775 3.07-6.48 5.166-6.48 1.001 0 1.254-.681.833-2.25-.331-1.238-.609-3.09-.616-4.117-.01-1.36-.547-1.727-1.977-1.353-1.08.283-2.494-.125-3.141-.906-.648-.78-1.962-1.171-2.919-.867-1.076.342-1.985-.086-2.382-1.12-.899-2.343.044-2.926 2.068-1.28 1.509 1.228 1.633 1.184 1.051-.369-.707-1.887 1.054-6.738 2.447-6.738.74 0 1.244 3.071 1.108 6.75a1.206 1.206 0 0 0 1.22 1.25c1.756 0 3.847-2.674 2.664-3.406-.94-.58-.083-6.281 1.274-8.476.928-1.501-.39-1.354-3.427.382-3.258 1.862-4 1.842-4-.107 0-.954.56-1.392 1.378-1.078 1.739.667 3.622-1.16 3.622-3.515 0-2.076-2.029-2.371-3.842-.558-.969.969-1.406.975-1.991.028-.499-.808-1.098-.29-1.792 1.548m81.655 27.732c.027 2.586.163 2.722 1.104 1.104.769-1.324.761-2.159-.03-2.95-.805-.805-1.096-.305-1.074 1.846m72.416-.108c-1.647 2.514-1.64 2.697.164 4.046 5.419 4.052 7.793 4.75 12.161 3.574l4.239-1.142-1.553-3.003c-2.772-5.36-12.327-7.572-15.011-3.475m-145.29 4.68c-1.652 2.645-1.049 3.255 1.417 1.435 1.322-.976 1.605-1.75.902-2.465-.708-.719-1.426-.401-2.319 1.03M62 173c0 .55.477 1 1.059 1s.781-.45.441-1-.816-1-1.059-1-.441.45-.441 1m125.536 2.732c-2.756 4.055-3.277 8.872-1.26 11.631 2.338 3.197 9.25-2.887 10.069-8.864.782-5.705.37-6.499-3.368-6.499-2.235 0-3.49.861-5.441 3.732m-145.252 7.384c-1.188 1.188-2.583 2.05-9.148 5.654-4.539 2.492-4.911 3.313-2.565 5.659 2.009 2.008 2.983 1.957 8.261-.439l4.333-1.966 3.167 2.367c8.231 6.152 18.542 8.589 36.38 8.601 18.254.013 28.863 5.394 27.316 13.855-.418 2.284-.482 4.219-.144 4.301 8.36 2.003 35.116-1.034 35.116-3.986 0-3.523-9.947-6.167-13.934-3.703-.51.316-1.21.116-1.556-.443-.345-.559-2.626-1.016-5.069-1.016-4.252 0-5.834-1.193-3.191-2.407.688-.316.275-.335-.916-.043-1.191.292-2.423.115-2.737-.394-.315-.509 1.447-1.433 3.915-2.055 2.796-.704 4.488-1.69 4.488-2.615 0-.817.525-1.486 1.167-1.486.641 0 .949-.217.683-.483-.265-.265-2.028-.032-3.916.52-5.383 1.571-17.078.13-17.681-2.179-.482-1.842-3.253-2.672-3.253-.975 0 1.591-4.002 1.972-5.454.52-.923-.923-1.643-1.056-2.061-.38-.373.606-3.013-1.015-6.321-3.881-4.945-4.284-6.142-4.869-9.262-4.525-2.512.277-4.238-.174-5.777-1.508-1.309-1.136-3.021-1.687-4.244-1.368-1.378.361-1.659.778-.859 1.273 1.374.849.558 1.452-3.165 2.34-3.479.83-12.403-3.142-16.294-7.252-3.067-3.24-5.391-3.874-7.279-1.986m194.526 4.134c-.385 5.292.885 10.75 2.503 10.75.481 0 .599-2.137.262-4.75-.337-2.613-.209-5.362.284-6.111 1.17-1.776.268-5.139-1.379-5.139-.837 0-1.421 1.835-1.67 5.25m-26.213 2.016c-2.147 1.229-3.834 2.572-3.75 2.984.084.412.153 2.786.153 5.275 0 4.967.772 5.6 8.245 6.764 3.573.557 3.861.387 6.25-3.691 3.171-5.411 3.148-5.796-.599-10.063-3.618-4.122-5.013-4.293-10.299-1.269m-78.725 5.484c-1.243 1.586-1.208 1.621.378.378 1.666-1.307 2.195-2.128 1.372-2.128-.207 0-.995.787-1.75 1.75m55.592 9.308c-1.76 2.848 9.843 13.969 12.158 11.653 1.396-1.395-1.963-6.567-6.21-9.56-5.028-3.544-5.047-3.551-5.948-2.093m37.714 9.657c-1.277.244-3.927 1.532-5.89 2.864-5.009 3.4-1.021 3.333 5.745-.096 6.521-3.304 6.557-3.991.145-2.768" fill-rule="evenodd"/></svg>